<?xml version="1.0" encoding="utf-8"?>
<!-- Generator: Adobe Illustrator 15.1.0, SVG Export Plug-In . SVG Version: 6.00 Build 0)  -->
<!DOCTYPE svg PUBLIC "-//W3C//DTD SVG 1.1//EN" "http://www.w3.org/Graphics/SVG/1.1/DTD/svg11.dtd">
<svg version="1.1" id="Layer_1" xmlns="http://www.w3.org/2000/svg" xmlns:xlink="http://www.w3.org/1999/xlink" x="0px" y="0px"
	 width="362.714px" height="50px" viewBox="0 0 362.714 50" enable-background="new 0 0 362.714 50" xml:space="preserve">
<g>
	<path fill="#2C84C6" d="M41.273,18.871l-11.777,0.738c-0.165-6.773-2.807-10.16-7.927-10.16c-5.872,0-8.808,5.215-8.808,15.645
		c0,6.024,0.798,10.107,2.395,12.252s3.828,3.217,6.693,3.217c4.649,0,7.491-3.023,8.525-9.07l10.898,0.668
		c-0.703,5.743-2.842,10.107-6.416,13.096c-3.574,2.988-7.951,4.482-13.131,4.482c-6.352,0-11.514-2.191-15.486-6.574
		c-3.973-4.382-5.959-10.441-5.959-18.176c0-7.242,1.921-13.171,5.766-17.789c3.844-4.617,9.093-6.926,15.75-6.926
		C33.328,0.273,39.82,6.473,41.273,18.871z"/>
	<path fill="#2C84C6" d="M83.426,1.012L68.929,49H56.847L42.434,1.012h11.967l9.601,34.313L74,1.012H83.426z"/>
	<path fill="#DB2A28" d="M94.816,49H83.953V38.137h10.863V49z"/>
	<path fill="#1E78BE" d="M140.379,1.012V49h-9.591l-18.78-32.414c0.023,0.821,0.047,1.359,0.07,1.617
		c0.093,0.821,0.141,1.512,0.141,2.074V49h-8.754V1.012h12.116l16.325,28.301c-0.141-1.406-0.211-2.473-0.211-3.199V1.012H140.379z"
		/>
	<path fill="#1E78BE" d="M181.406,33.004h-22.852c-0.023,0.633-0.035,1.184-0.035,1.652c0,2.531,0.673,4.442,2.021,5.73
		c1.348,1.289,2.958,1.934,4.834,1.934c3.492,0,5.59-1.863,6.293-5.59l9.492,0.703c-2.649,8.204-8.028,12.305-16.137,12.305
		c-3.539,0-6.545-0.709-9.018-2.127c-2.473-1.418-4.512-3.486-6.117-6.205c-1.605-2.719-2.408-5.977-2.408-9.773
		c0-5.648,1.611-10.207,4.834-13.676c3.222-3.468,7.365-5.203,12.428-5.203c4.57,0,8.49,1.612,11.76,4.834
		C179.771,20.811,181.406,25.95,181.406,33.004z M158.52,26.922h12.621c-0.329-4.875-2.333-7.313-6.012-7.313
		C161.191,19.609,158.988,22.047,158.52,26.922z"/>
	<path fill="#1E78BE" d="M199.828,21.648V36.66c0,1.875,0.279,3.129,0.84,3.762s1.879,0.949,3.956,0.949
		c0.956,0,2.065-0.047,3.325-0.141V49c-3.047,0.515-5.238,0.773-6.574,0.773c-4.359,0-7.453-0.838-9.281-2.514
		c-1.828-1.675-2.742-4.705-2.742-9.088V21.648h-5.625v-8.156h6.223l0.844-10.477l9.035-0.703v11.18h7.629v8.156H199.828z"/>
	<path fill="#1E78BE" d="M260.332,13.492L249.601,49h-9.222l-5.623-22.852L229.145,49h-8.746l-11.008-35.508h10.926l5.791,21.691
		l5.435-21.691h9.476l5.199,21.832l6.037-21.832H260.332z"/>
	<path fill="#1E78BE" d="M279.264,12.754c5.408,0,9.629,1.77,12.66,5.309c3.033,3.539,4.549,7.969,4.549,13.289
		c0,5.25-1.575,9.627-4.724,13.131c-3.149,3.504-7.334,5.256-12.555,5.256c-5.058,0-9.103-1.734-12.135-5.203
		c-3.032-3.468-4.548-7.922-4.548-13.359c0-3.773,0.685-6.979,2.055-9.615c1.369-2.637,3.248-4.764,5.637-6.381
		C272.591,13.563,275.611,12.754,279.264,12.754z M279.545,19.609c-1.986,0-3.482,0.768-4.486,2.303
		c-1.006,1.535-1.508,4.588-1.508,9.158c0,4.196,0.479,7.207,1.438,9.035c0.957,1.828,2.453,2.742,4.486,2.742
		c1.776,0,3.213-0.779,4.312-2.338c1.099-1.559,1.647-4.529,1.647-8.912c0-4.664-0.485-7.828-1.455-9.492
		C283.009,20.441,281.531,19.609,279.545,19.609z"/>
	<path fill="#1E78BE" d="M313.242,49h-10.16V13.492h9.598v6.609c1.477-4.922,4.031-7.383,7.664-7.383
		c0.516,0,1.148,0.035,1.898,0.105V23.16c-2.133,0-3.791,0.329-4.975,0.984c-1.184,0.656-2.15,1.834-2.9,3.533
		c-0.75,1.7-1.125,3.99-1.125,6.873V49z"/>
	<path fill="#1E78BE" d="M351.186,25.536L362.742,49h-11.562l-7.413-16.085l-6.162,7.083V49h-9.879V1.012h9.879V29.77l1.545-1.934
		c0.655-0.891,1.205-1.605,1.65-2.145l10.359-12.199h10.211L351.186,25.536z"/>
</g>
</svg>
